<svg xmlns="http://www.w3.org/2000/svg" viewBox="0 0 640 640" width="640" height="640">
  <defs>
    <style>
    .t{font-family:Impact,'Haettenschweiler','Arial Narrow Bold','Arial Black',sans-serif;font-weight:900;letter-spacing:.5px;}
    .c{font-family:'Comic Sans MS','Comic Sans','Chalkboard SE','Marker Felt',cursive;}
    .m{font-family:'Courier New',ui-monospace,monospace;font-weight:700;}
</style>
    <filter id="rough4" x="-20%" y="-20%" width="140%" height="140%">
      <feTurbulence type="turbulence" baseFrequency="0.013" numOctaves="2" seed="31" result="n"/>
      <feDisplacementMap in="SourceGraphic" in2="n" scale="5" xChannelSelector="R" yChannelSelector="G"/>
    </filter>
    <filter id="paper4" x="0" y="0" width="100%" height="100%">
      <feTurbulence type="fractalNoise" baseFrequency="0.9" numOctaves="2" seed="34" result="f"/>
      <feColorMatrix in="f" type="matrix" values="0 0 0 0 0  0 0 0 0 0  0 0 0 0 0  0 0 0 .06 0"/>
      <feComposite operator="over" in2="SourceGraphic"/>
    </filter>
  </defs><rect x="0" y="0" width="640" height="640" rx="18" fill="#F1E6CF" filter="url(#paper4)"/><g filter="url(#rough4)"><line x1="320" y1="86" x2="320" y2="112" stroke="#171513" stroke-width="4"/><path d="M270 120 Q320 96 370 120" stroke="#171513" stroke-width="5" fill="none"/><path d="M272 118 q-5 14 0 18 q5 -4 0 -18" fill="#FFD23F" stroke="#171513" stroke-width="2.5"/><path d="M300 118 q-5 14 0 18 q5 -4 0 -18" fill="#FFD23F" stroke="#171513" stroke-width="2.5"/><path d="M320 118 q-5 14 0 18 q5 -4 0 -18" fill="#FFD23F" stroke="#171513" stroke-width="2.5"/><path d="M340 118 q-5 14 0 18 q5 -4 0 -18" fill="#FFD23F" stroke="#171513" stroke-width="2.5"/><path d="M368 118 q-5 14 0 18 q5 -4 0 -18" fill="#FFD23F" stroke="#171513" stroke-width="2.5"/><rect x="120" y="330" width="400" height="22" rx="6" fill="#7a4a23" stroke="#171513" stroke-width="5"/><rect x="150" y="352" width="14" height="60" fill="#7a4a23" stroke="#171513" stroke-width="4"/><rect x="476" y="352" width="14" height="60" fill="#7a4a23" stroke="#171513" stroke-width="4"/><circle cx="320" cy="200" r="24" fill="#ffe0c2" stroke="#171513" stroke-width="5"/><circle cx="310.4" cy="197.6" r="3.3600000000000003" fill="#171513"/><circle cx="329.6" cy="197.6" r="3.3600000000000003" fill="#171513"/><line x1="309.2" y1="210.8" x2="330.8" y2="210.8" stroke="#171513" stroke-width="4" stroke-linecap="round"/><path d="M296.0 228 L344.0 228 L339.2 285.6 L300.8 285.6 Z" fill="#1FA84A" stroke="#171513" stroke-width="5"/><path d="M298.4 234 L279.2 266.4" stroke="#171513" stroke-width="6" fill="none" stroke-linecap="round"/><path d="M341.6 234 L360.8 266.4" stroke="#171513" stroke-width="6" fill="none" stroke-linecap="round"/><path d="M312.8 285.6 L298.4 326.40000000000003" stroke="#171513" stroke-width="6" fill="none" stroke-linecap="round"/><path d="M327.2 285.6 L341.6 326.40000000000003" stroke="#171513" stroke-width="6" fill="none" stroke-linecap="round"/><rect x="306" y="300" width="12" height="26" rx="3" fill="#fff" stroke="#171513" stroke-width="3"/><rect x="328" y="300" width="12" height="26" rx="3" fill="#fff" stroke="#171513" stroke-width="3"/><ellipse cx="300" cy="330" rx="16" ry="7" fill="#111" stroke="#171513" stroke-width="2"/><ellipse cx="340" cy="330" rx="16" ry="7" fill="#111" stroke="#171513" stroke-width="2"/><circle cx="200" cy="235" r="19" fill="#ffe0c2" stroke="#171513" stroke-width="5"/><circle cx="192.4" cy="233.1" r="2.66" fill="#171513"/><circle cx="207.6" cy="233.1" r="2.66" fill="#171513"/><line x1="191.45" y1="243.55" x2="208.55" y2="243.55" stroke="#171513" stroke-width="4" stroke-linecap="round"/><path d="M181.0 258 L219.0 258 L215.2 303.6 L184.8 303.6 Z" fill="#2b2b2b" stroke="#171513" stroke-width="5"/><path d="M182.9 264 L167.7 288.4" stroke="#171513" stroke-width="6" fill="none" stroke-linecap="round"/><path d="M217.1 264 L232.3 288.4" stroke="#171513" stroke-width="6" fill="none" stroke-linecap="round"/><path d="M194.3 303.6 L182.9 335.90000000000003" stroke="#171513" stroke-width="6" fill="none" stroke-linecap="round"/><path d="M205.7 303.6 L217.1 335.90000000000003" stroke="#171513" stroke-width="6" fill="none" stroke-linecap="round"/><circle cx="440" cy="235" r="19" fill="#ffe0c2" stroke="#171513" stroke-width="5"/><circle cx="432.4" cy="233.1" r="2.66" fill="#171513"/><circle cx="447.6" cy="233.1" r="2.66" fill="#171513"/><line x1="431.45" y1="243.55" x2="448.55" y2="243.55" stroke="#171513" stroke-width="4" stroke-linecap="round"/><path d="M421.0 258 L459.0 258 L455.2 303.6 L424.8 303.6 Z" fill="#2b2b2b" stroke="#171513" stroke-width="5"/><path d="M422.9 264 L407.7 288.4" stroke="#171513" stroke-width="6" fill="none" stroke-linecap="round"/><path d="M457.1 264 L472.3 288.4" stroke="#171513" stroke-width="6" fill="none" stroke-linecap="round"/><path d="M434.3 303.6 L422.9 335.90000000000003" stroke="#171513" stroke-width="6" fill="none" stroke-linecap="round"/><path d="M445.7 303.6 L457.1 335.90000000000003" stroke="#171513" stroke-width="6" fill="none" stroke-linecap="round"/><text x="200" y="170" class="t" font-size="26" fill="#171513" text-anchor="middle">?</text><text x="440" y="172" class="t" font-size="26" fill="#171513" text-anchor="middle">?</text><path d="M250 312 q14 0 14 -16 h-28 q0 16 14 16 z" fill="#7d1f3a" stroke="#171513" stroke-width="3"/><line x1="250" y1="312" x2="250" y2="330" stroke="#171513" stroke-width="3"/></g>
  <g filter="url(#rough4)">
    <rect x="20" y="20" width="600" height="600" rx="14" fill="none" stroke="#171513" stroke-width="11"/>
    <rect x="33" y="33" width="574" height="574" rx="10" fill="none" stroke="#171513" stroke-width="3.5"/>
    <path d="M576 33 L607 33 L607 64 Z" fill="#1FA84A" stroke="#171513" stroke-width="3.5"/>
    <path d="M576 33 L607 64" stroke="#171513" stroke-width="3" fill="none"/>
  </g>
  <g filter="url(#rough4)" transform="rotate(-3 120 58)">
    <rect x="44" y="36" width="166" height="46" rx="23" fill="#3a3733"/>
    <text x="64" y="68" class="t" font-size="26" fill="#FFCE2B">◷ SOON</text>
  </g>
  <g filter="url(#rough4)" transform="rotate(4 596 64)">
    <rect x="538" y="44" width="58" height="40" rx="6" fill="#FBFBEF" stroke="#171513" stroke-width="4"/>
    <text x="567.0" y="71" class="m" font-size="20" fill="#171513" text-anchor="middle">FAN</text>
  </g>
  <g filter="url(#rough4)" transform="rotate(-7 108.0 407.0)">
    <rect x="70" y="372" width="76" height="70" fill="#FFE873" stroke="#171513" stroke-width="3"/>
    <text x="108.0" y="398" class="c" font-size="17" fill="#171513" text-anchor="middle">act</text><text x="108.0" y="420" class="c" font-size="17" fill="#171513" text-anchor="middle">normal</text>
  </g>
  <g transform="rotate(-1.6 320 495)">
    <g filter="url(#rough4)">
      <path d="M48 442 L596 436 L600 552 L44 558 Z" fill="#171513"/>
    </g>
    <text x="320" y="480" class="t" font-size="44" fill="#FBFBEF" stroke="#171513" stroke-width="2.5" paint-order="stroke" text-anchor="middle">KIT 2 A</text><text x="320" y="525" class="t" font-size="44" fill="#FFCE2B" stroke="#171513" stroke-width="2.5" paint-order="stroke" text-anchor="middle">SERIUS PLACE</text>
  </g>
  <g filter="url(#rough4)" transform="rotate(-13 122 506)">
    <circle cx="122" cy="506" r="58" fill="#FFCE2B" stroke="#171513" stroke-width="7"/>
    <circle cx="122" cy="506" r="46" fill="none" stroke="#E0A312" stroke-width="4" stroke-dasharray="2 7"/>
    <text x="122" y="498" class="t" font-size="40" fill="#171513" text-anchor="middle">◎</text>
    <text x="122" y="534" class="t" font-size="30" fill="#171513" text-anchor="middle">0.5</text>
  </g>
  <g filter="url(#rough4)" transform="rotate(-6 545 596)">
    <rect x="470" y="578" width="150" height="34" rx="17" fill="#FBFBEF" stroke="#171513" stroke-width="3.5"/>
    <text x="545" y="602" class="t" font-size="18" fill="#171513" text-anchor="middle">$WerldCap</text>
  </g></svg>